<?xml version="1.0" encoding="UTF-8"?>
<svg version="1.1" viewBox="0 0 2000 2000" width="1280" height="1280" xmlns="http://www.w3.org/2000/svg">
<path transform="translate(1826,327)" d="m0 0 5 2 4 5 6 16 7 34 13 77 6 33 13 87 10 76 5 46 5 63 3 48 2 45 1 38v74l-3 67-4 57-5 46-9 57-7 38-13 57-15 53-12 36-10 28-12 30-13 29-12 25-10 20-13 23-13 22-16 24-16 23-12 16-9 11-11 13-12 14-22 24-20 20-8 7-14 12-11 9-16 13-17 13-15 11-15 10-17 11-25 15-23 13-34 18-33 15-29 12-38 14-36 12-35 10-45 11-53 11-40 7-37 5-57 6-57 4-40 2h-52l-15-4-13-8-7-6-9-13-8-16-8-19-9-27-7-27-7-36-6-40-3-25-2-34v-26l2-35 4-38 7-47 10-47 7-25 13-37 6-17 8-21 15-33 14-28 10-18 12-21 8-13 22-33 9-12 7-10 14-18 10-12 8-10 9-10 13-15 23-23 5-6h2v-2l8-7 7-7 8-7 14-13 22-18 10-8 19-14 17-12 18-13 24-15 18-11 18-10 24-13 25-13 36-16 25-12 24-9 47-17 22-7 43-12 21-6 2-2h-7l-32 5-51 7-43 7-43 8-80 18-41 11-41 13-36 12-20 7-41 17-29 13-41 21-24 14-15 10-20 13-12 8-13 10-14 10-11 9-16 13-15 13-35 35-7 8-9 10-11 14-11 13-9 12-14 22-11 15-16 28-15 28-13 27-12 30-11 29-11 34-14 55-6 26-8 51-4 32-3 37-2 41v114l2 39 1 14v11l-1 1-9-1-7-6-7-14-12-36-9-26-10-31-9-29-10-35-12-44-7-34-7-44-8-64-3-39v-44l2-41 5-44 6-38 9-48 5-21 9-29 13-38 13-32 14-29 11-22 13-23 7-11 9-14 9-13 6-7 8-11 12-16 11-13 7-8 9-10 7-8 33-33 8-7 10-9 14-11 8-7 13-10 16-12 17-12 16-11 19-12 26-16 29-17 46-25 46-23 29-14 15-7 42-19 31-13 28-12 33-13 48-20 27-11 77-30 31-12 27-11 39-15 34-14 32-13 21-9 32-14 30-13 26-13 22-10 16-8 26-14 23-13 17-10 15-10 22-15 16-12 11-9 14-12 10-10 11-9 9-8 12-7z" fill="#B5DC35"/>
<path transform="translate(476)" d="m0 0h56v2l4 2 12 9 12 8 16 11 34 24 18 13 14 10 18 13 19 14 30 23 14 11 18 14 14 11 11 9 17 14 14 11 13 11 11 9 13 11 11 9 10 9 8 7 10 9 8 7 20 18 16 15 8 8 8 7 23 23 4 3v2l4 2v2h2l7 8 19 19 7 8 9 9 7 8 13 14 9 11 7 7 7 8 12 14 9 11 11 13 13 17 14 18 14 19 10 13 16 24 7 15-2 5-8 6-22 10-25 11-30 13-42 19-20 9-33 16-23 11-16 8-27 14-22 12-23 13-29 17-25 16-21 14-19 13-18 13-13 10-10 8-13 11-22 18-9 9-8 7-12 11h-2v2l-5 5-16 15-20 20-7 8-9 9-7 8-13 16-12 15-12 16-10 14-9 13-9 15-8 13-16 29-10 21-18 45-1 2h-2l-4-11 1-17 1-45 4-36 7-43 8-39 9-36 12-37 14-39 14-36 13-30 11-25 8-16 15-28 17-33 12-22 16-32-5 3-14 20-10 14-16 21-11 15-11 16-13 18-11 15-9 13-22 33-19 32-13 22-12 21-18 34-10 19-16 34-14 32-15 39-14 39-11 41-7 30-7 39-5 35-3 32v71l3 30 5 33 8 39 7 28 13 41 18 46 12 27 10 19 11 21 14 24 13 22 11 18 12 24 9 27 14 45 13 38 7 25 3 10v8l-2 1-16-6-18-11-26-16-14-10-15-10-10-7-16-12-16-13-10-8-13-11-15-13-15-14-8-8-8-7-16-16-7-8-11-11-7-8-24-28-13-17-14-19-14-20-9-14-12-19-13-22-18-35-14-31-14-38-8-25-8-27-7-30-8-47-4-30-2-29v-45l2-32 5-43 7-44 9-45 14-53 16-55 12-35 12-36 15-41 8-20 17-44 19-45 13-32 11-26 11-25 12-28 15-34 12-28 11-25 7-15 14-33 11-26 8-19 11-26 15-37 7-17 6-17 7-18 13-36 12-39 12-41 9-39 6-36 5-43z" fill="#025F2E"/>
</svg>
